# xmcd
#
# Track frame offsets:
#	150
#	11269
#	24151
#	34101
#	43709
#	53235
#	62594
#	69594
#	80714
#	92536
#	101248
#	112864
#	121081
#	126281
#
# Disc length: 1894 seconds
#
# Revision: 1
# Processed by: cddbd v1.5.2PL0 Copyright (c) Steve Scherf et al.
# Submitted via: audiograbber 1.83.01
#
DISCID=ac07640e
DTITLE=Winnebago Deal - Career Suicide
DYEAR=2010
DGENRE=punk
TTITLE0=Heart Attack In My Head
TTITLE1=Tokyo Rip
TTITLE2=I Want Your Blood
TTITLE3=Nobody's Fault But Mine
TTITLE4=You Don't Exist
TTITLE5=Poison
TTITLE6=Ain't No Salvation
TTITLE7=Murder Will Out
TTITLE8=Career Suicide
TTITLE9=Avalanche
TTITLE10=Set In Stone
TTITLE11=Suicide Pact
TTITLE12=Frostbitter
TTITLE13=Can't See, Don't Care, Don't Know
EXTD=
EXTT0=
EXTT1=
EXTT2=
EXTT3=
EXTT4=
EXTT5=
EXTT6=
EXTT7=
EXTT8=
EXTT9=
EXTT10=
EXTT11=
EXTT12=
EXTT13=
PLAYORDER=
